<svg width="23" height="24" viewBox="0 0 23 24" fill="none" xmlns="http://www.w3.org/2000/svg">
<g clip-path="url(#clip0_1331_11924)">
<mask id="mask0_1331_11924" style="mask-type:luminance" maskUnits="userSpaceOnUse" x="0" y="0" width="23" height="24">
<path d="M0 1.90735e-06H23V24H0V1.90735e-06Z" fill="white"/>
</mask>
<g mask="url(#mask0_1331_11924)">
<path d="M8.53673 23.6484H7.1433C4.84518 23.6484 2.96484 21.6864 2.96484 19.2883V15.1508C2.96484 14.8414 3.20747 14.5883 3.50391 14.5883H12.1761C12.4726 14.5883 12.7152 14.8414 12.7152 15.1508V19.2883C12.7152 21.6864 10.8349 23.6484 8.53673 23.6484Z" fill="#FFC400"/>
<path d="M12.1765 14.5883H10.8288C11.1253 14.5883 11.3679 14.8414 11.3679 15.1508V19.2884C11.3679 21.6864 9.48761 23.6484 7.18945 23.6484H8.53711C10.8353 23.6484 12.7156 21.6864 12.7156 19.2884V15.1508C12.7156 14.8414 12.473 14.5883 12.1765 14.5883Z" fill="#FF9800"/>
<path d="M3.66016 17.2871H1.95312C1.05999 17.2871 0.335938 16.5316 0.335938 15.5996V10.7305C0.335938 9.17394 1.54519 7.91211 3.03686 7.91211C4.27424 7.91211 5.27734 8.95883 5.27734 10.25V15.5996C5.27734 16.5316 4.55329 17.2871 3.66016 17.2871Z" fill="#FFAB00"/>
<path d="M12.0156 17.2871H13.7227C14.6158 17.2871 15.3398 16.5316 15.3398 15.5996V10.7305C15.3398 9.17394 14.1306 7.91211 12.6389 7.91211C11.4015 7.91211 10.3984 8.95883 10.3984 10.25V15.5996C10.3984 16.5316 11.1225 17.2871 12.0156 17.2871Z" fill="#FFAB00"/>
<path d="M12.6398 7.91211C12.4167 7.91211 12.2014 7.94661 11.998 8.00998C13.1473 8.33389 13.9931 9.42884 13.9931 10.7305V15.5996C13.9931 16.5316 13.2691 17.2871 12.3759 17.2871H13.7236C14.6167 17.2871 15.3408 16.5316 15.3408 15.5996V10.7305C15.3408 9.17394 14.1315 7.91211 12.6398 7.91211Z" fill="#FF9800"/>
<path d="M13.7009 15.2231C13.7262 17.4152 11.9811 19.209 9.88022 19.209H5.80361C3.72404 19.209 1.99518 17.477 1.97671 15.3072C1.96863 14.3586 2.28371 13.4554 2.85822 12.7416C3.1786 12.3435 3.34665 11.836 3.34665 11.3162V9.18945C3.34665 7.42259 4.71933 5.99023 6.41257 5.99023H9.26511C10.9584 5.99023 12.331 7.42259 12.331 9.18945V11.3159C12.331 11.8481 12.5172 12.3584 12.8416 12.7692C13.3695 13.4379 13.6901 14.2915 13.7009 15.2231Z" fill="#E6CABD"/>
<path d="M12.8421 12.7692C12.5178 12.3584 12.3315 11.8481 12.3315 11.3159V9.18945C12.3315 7.42255 10.9589 5.99023 9.26562 5.99023H7.91797C9.61125 5.99023 10.9839 7.42255 10.9839 9.18945V11.3159C10.9839 11.8481 11.1701 12.3584 11.4944 12.7692C12.0223 13.4379 12.343 14.2915 12.3537 15.2231C12.379 17.4151 10.634 19.209 8.53308 19.209H9.88074C11.9816 19.209 13.7267 17.4151 13.7014 15.2231C13.6907 14.2915 13.37 13.4379 12.8421 12.7692Z" fill="#D9A990"/>
<path d="M12.331 11.0469V9.18898C12.331 7.42213 10.9584 5.98977 9.26511 5.98977H7.83884C7.83884 5.98977 6.35642 11.0469 12.331 11.0469Z" fill="#FFC400"/>
<path d="M9.26562 5.98981H7.91797C9.61121 5.98981 10.9839 7.42217 10.9839 9.18908V10.9465C11.3845 11.0113 11.8318 11.0469 12.3315 11.0469V9.18908C12.3315 7.42217 10.9589 5.98981 9.26562 5.98981Z" fill="#FFAB00"/>
<path d="M7.83984 14.6152C6.9751 14.6152 6.26758 13.877 6.26758 12.9746C6.26758 12.0723 6.9751 11.334 7.83984 11.334C8.70459 11.334 9.41211 12.0723 9.41211 12.9746C9.41211 13.877 8.70459 14.6152 7.83984 14.6152Z" fill="#633E31"/>
<path d="M7.83984 11.334C7.59906 11.334 7.37054 11.3914 7.16602 11.4935C7.696 11.758 8.06445 12.3235 8.06445 12.9746C8.06445 13.6258 7.696 14.1913 7.16602 14.4558C7.37054 14.5579 7.59906 14.6152 7.83984 14.6152C8.70459 14.6152 9.41211 13.877 9.41211 12.9746C9.41211 12.0723 8.70459 11.334 7.83984 11.334Z" fill="#59382C"/>
<path d="M6.22266 23.6484H2.26953C1.77332 23.6484 1.37109 23.2287 1.37109 22.7109C1.37109 21.6754 2.1756 20.8359 3.16797 20.8359H5.32422C6.31659 20.8359 7.12109 21.6754 7.12109 22.7109C7.12109 23.2287 6.71882 23.6484 6.22266 23.6484Z" fill="#E6CABD"/>
<path d="M5.32422 20.8359H3.97656C4.96893 20.8359 5.77344 21.6754 5.77344 22.7109C5.77344 23.2287 5.37116 23.6484 4.875 23.6484H6.22266C6.71882 23.6484 7.12109 23.2287 7.12109 22.7109C7.12109 21.6754 6.31659 20.8359 5.32422 20.8359Z" fill="#D9A990"/>
<path d="M13.4102 23.6484H9.45703C8.96087 23.6484 8.55859 23.2287 8.55859 22.7109C8.55859 21.6754 9.3631 20.8359 10.3555 20.8359H12.5117C13.5041 20.8359 14.3086 21.6754 14.3086 22.7109C14.3086 23.2287 13.9064 23.6484 13.4102 23.6484Z" fill="#E6CABD"/>
<path d="M12.5117 20.8359H11.1641C12.1565 20.8359 12.9609 21.6754 12.9609 22.7109C12.9609 23.2287 12.5587 23.6484 12.0625 23.6484H13.4102C13.9064 23.6484 14.3086 23.2287 14.3086 22.7109C14.3086 21.6754 13.5041 20.8359 12.5117 20.8359Z" fill="#D9A990"/>
<path d="M19.4275 1.12345C20.3674 2.03179 20.571 3.43987 20.0379 4.56473L22.6096 7.24818C22.6798 7.3214 22.6798 7.44013 22.6096 7.5133L21.5931 8.57399C21.5229 8.64721 21.4092 8.64721 21.339 8.57399L18.7674 5.89054C18.1409 6.21407 17.4221 6.27801 16.7592 6.08146L14.8434 8.08054L12.9375 6.09177L14.8412 4.1053C14.547 3.07195 14.8111 1.90204 15.6348 1.11346C16.702 0.0916796 18.365 0.0964146 19.4275 1.12345Z" fill="#FF7043"/>
<path d="M22.6091 7.24818L20.0375 4.56473C20.5706 3.43987 20.3669 2.03179 19.427 1.12345C18.7175 0.437618 17.7404 0.208352 16.8516 0.435509C17.2983 0.549743 17.7227 0.778681 18.0794 1.12345C19.0192 2.03179 19.2229 3.43987 18.6898 4.56473L21.2345 7.22005C21.3196 7.30884 21.3196 7.4527 21.2345 7.54143L20.7918 8.00343L21.3385 8.57399C21.4087 8.64721 21.5225 8.64721 21.5927 8.57399L22.6091 7.5133C22.6793 7.44013 22.6793 7.3214 22.6091 7.24818Z" fill="#FF5722"/>
<path d="M18.5293 2.22476C19.0834 2.80287 19.0834 3.74023 18.5293 4.31834C17.9753 4.89649 17.077 4.89649 16.5229 4.31834C15.9689 3.74023 15.9689 2.80287 16.5229 2.22476C17.077 1.6466 17.9753 1.6466 18.5293 2.22476Z" fill="#26C6DA"/>
<path d="M22.6102 7.51334L21.5937 8.57403C21.5236 8.6472 21.4098 8.6472 21.3396 8.57403L19.3516 6.49953L20.6221 5.17372L22.6102 7.24821C22.6804 7.32139 22.6804 7.44012 22.6102 7.51334Z" fill="#546E7A"/>
<path d="M22.6092 7.24814L20.6211 5.17365L19.9473 5.87677L21.2615 7.24814C21.3317 7.32136 21.3317 7.4401 21.2615 7.51327L20.7918 8.00339L21.3386 8.57396C21.4088 8.64722 21.5225 8.64722 21.5927 8.57396L22.6092 7.51327C22.6793 7.4401 22.6793 7.32136 22.6092 7.24814Z" fill="#455A64"/>
<path d="M14.8805 8.35106L14.1468 9.11667C14.0862 9.17986 13.9881 9.17986 13.9275 9.11667L11.9614 7.06505C11.9009 7.00191 11.9009 6.89948 11.9614 6.8363L12.6951 6.07073C12.7557 6.00755 12.8538 6.00755 12.9144 6.07073L14.8805 8.12227C14.941 8.18545 14.941 8.28787 14.8805 8.35106Z" fill="#26C6DA"/>
<path d="M7.83984 14.6152V16.1621" stroke="#59382C" stroke-width="0.703125" stroke-miterlimit="10" stroke-linecap="round" stroke-linejoin="round"/>
<path d="M3.39258 14.7559C3.39258 15.5325 3.99601 16.1621 4.74037 16.1621H10.9393C11.6837 16.1621 12.2871 15.5325 12.2871 14.7559" stroke="#59382C" stroke-width="0.703125" stroke-miterlimit="10" stroke-linecap="round" stroke-linejoin="round"/>
<path d="M3.21289 23.6484V22.6172" stroke="#59382C" stroke-width="0.703125" stroke-miterlimit="10" stroke-linecap="round" stroke-linejoin="round"/>
<path d="M5.2793 23.6484V22.6172" stroke="#59382C" stroke-width="0.703125" stroke-miterlimit="10" stroke-linecap="round" stroke-linejoin="round"/>
<path d="M10.4004 23.6484V22.6172" stroke="#59382C" stroke-width="0.703125" stroke-miterlimit="10" stroke-linecap="round" stroke-linejoin="round"/>
<path d="M12.4668 23.6484V22.6172" stroke="#59382C" stroke-width="0.703125" stroke-miterlimit="10" stroke-linecap="round" stroke-linejoin="round"/>
<path d="M11.1932 5.04688L10.8633 2.77766" stroke="#26C6DA" stroke-width="0.703125" stroke-miterlimit="10" stroke-linecap="round" stroke-linejoin="round"/>
<path d="M16.2305 9.77809L18.6721 9.98828" stroke="#26C6DA" stroke-width="0.703125" stroke-miterlimit="10" stroke-linecap="round" stroke-linejoin="round"/>
<path d="M8.77991 4.49023L7.27539 2.04589" stroke="#26C6DA" stroke-width="0.703125" stroke-miterlimit="10" stroke-linecap="round" stroke-linejoin="round"/>
<path d="M16.7051 11.8738L20.3725 12.7969" stroke="#26C6DA" stroke-width="0.703125" stroke-miterlimit="10" stroke-linecap="round" stroke-linejoin="round"/>
<path d="M4.93555 9.23438C4.93555 9.23438 5.67271 8.78555 6.54811 9.12267" stroke="black" stroke-width="0.703125" stroke-miterlimit="10" stroke-linecap="round" stroke-linejoin="round"/>
<path d="M11.1184 9.23438C11.1184 9.23438 10.3813 8.78555 9.50586 9.12267" stroke="black" stroke-width="0.703125" stroke-miterlimit="10" stroke-linecap="round" stroke-linejoin="round"/>
</g>
</g>
<defs>
<clipPath id="clip0_1331_11924">
<rect width="23" height="24" fill="white"/>
</clipPath>
</defs>
</svg>
