<svg width="24" height="24" viewBox="0 0 24 24" fill="none" xmlns="http://www.w3.org/2000/svg">
<path d="M23.5312 10.5898V12.0017C23.5312 12.7817 22.8994 13.4136 22.1194 13.4136H18.8245V12.9411C18.8245 12.6823 18.6145 12.4723 18.3558 12.4723H5.64422C5.38547 12.4723 5.17547 12.6823 5.17547 12.9411V13.4136H1.88063C1.10062 13.4136 0.46875 12.7817 0.46875 12.0017V10.5898H23.5312Z" fill="#70C6F8"/>
<path d="M22.1194 3.05859H18.8245V4.47281C18.8245 4.73156 18.6145 4.94156 18.3558 4.94156H5.64422C5.38547 4.94156 5.17547 4.73156 5.17547 4.47281V3.05859H1.88063C1.10062 3.05859 0.46875 3.69094 0.46875 4.47094V10.5895H23.5312V4.47094C23.5312 3.69094 22.8994 3.05859 22.1194 3.05859Z" fill="#8FD8FB"/>
<path d="M20.7073 6.82422C21.2272 6.82422 21.6486 7.24563 21.6486 7.76547C21.6486 8.28531 21.2272 8.70672 20.7073 8.70672C20.187 8.70672 19.7656 8.28531 19.7656 7.76547C19.7656 7.24563 20.187 6.82422 20.7073 6.82422Z" fill="#F3E872"/>
<path d="M18.8248 13.8845C18.8248 14.1437 18.6148 14.3532 18.3561 14.3532H5.64453C5.38578 14.3532 5.17578 14.1437 5.17578 13.8845C5.17578 13.5539 5.17578 13.27 5.17578 12.9395C5.17578 12.6807 5.38578 12.4707 5.64453 12.4707H18.3561C18.6148 12.4707 18.8248 12.6807 18.8248 12.9395V13.8845Z" fill="#8FACE0"/>
<path d="M18.8248 3.05859V4.47281C18.8248 4.73156 18.6148 4.94156 18.3561 4.94156H5.64453C5.38578 4.94156 5.17578 4.73156 5.17578 4.47281V3.05859H18.8248Z" fill="#8FACE0"/>
<path d="M16.9412 8.70672C17.4611 8.70672 17.8825 8.28531 17.8825 7.76547C17.8825 7.24563 17.4611 6.82422 16.9412 6.82422C16.4214 6.82422 16 7.24563 16 7.76547C16 8.28531 16.4214 8.70672 16.9412 8.70672Z" fill="#E06E7E"/>
<path d="M7.29291 21.4097C6.51539 21.4097 5.88281 20.7772 5.88281 19.9997C5.88281 19.7409 6.09272 19.531 6.35156 19.531C6.61041 19.531 6.82031 19.7409 6.82031 19.9997C6.82031 20.2603 7.03228 20.4722 7.29291 20.4722C7.55353 20.4722 7.7655 20.2603 7.7655 19.9997V16.2344C7.7655 15.9755 7.97541 15.7656 8.23425 15.7656C8.49309 15.7656 8.703 15.9755 8.703 16.2344V19.9997C8.703 20.7772 8.07042 21.4097 7.29291 21.4097Z" fill="#70C6F8"/>
<path d="M16.707 21.4097C15.9295 21.4097 15.2969 20.7772 15.2969 19.9997V16.2344C15.2969 15.9755 15.5068 15.7656 15.7656 15.7656C16.0245 15.7656 16.2344 15.9755 16.2344 16.2344V19.9997C16.2344 20.2603 16.4463 20.4722 16.707 20.4722C16.9676 20.4722 17.1796 20.2603 17.1796 19.9997C17.1796 19.7409 17.3895 19.531 17.6483 19.531C17.9072 19.531 18.1171 19.7409 18.1171 19.9997C18.1171 20.7772 17.4845 21.4097 16.707 21.4097Z" fill="#70C6F8"/>
<path d="M10.1172 18.5858C9.85834 18.5858 9.64844 18.3759 9.64844 18.117V16.2344C9.64844 15.9755 9.85834 15.7656 10.1172 15.7656C10.376 15.7656 10.5859 15.9755 10.5859 16.2344V18.117C10.5859 18.3759 10.376 18.5858 10.1172 18.5858Z" fill="#70C6F8"/>
<path d="M13.8828 18.5858C13.624 18.5858 13.4141 18.3759 13.4141 18.117V16.2344C13.4141 15.9755 13.624 15.7656 13.8828 15.7656C14.1417 15.7656 14.3516 15.9755 14.3516 16.2344V18.117C14.3516 18.3759 14.1417 18.5858 13.8828 18.5858Z" fill="#70C6F8"/>
<path d="M12 19.9978C11.7412 19.9978 11.5312 19.7879 11.5312 19.529V16.2344C11.5312 15.9755 11.7412 15.7656 12 15.7656C12.2588 15.7656 12.4688 15.9755 12.4688 16.2344V19.529C12.4688 19.7879 12.2588 19.9978 12 19.9978Z" fill="#70C6F8"/>
</svg>
