<svg width="22" height="24" viewBox="0 0 22 24" fill="none" xmlns="http://www.w3.org/2000/svg">
<path d="M19.0149 22.2921V21.609C19.0149 20.2981 18.1901 19.1427 16.9864 18.7675L13.6532 17.7286C13.073 17.5478 12.6756 16.9909 12.6756 16.3592V13.2051H8.53664V16.3592C8.53664 16.9909 8.13913 17.5477 7.55905 17.7285L4.22585 18.7675C3.02212 19.1426 2.19727 20.298 2.19727 21.609V22.292C2.19727 22.8461 2.62775 23.2953 3.15877 23.2953H18.0534C18.5844 23.2954 19.0149 22.8462 19.0149 22.2921Z" fill="#FFE8C8"/>
<path d="M8.53664 13.2051V16.3592C8.53664 16.9909 8.13913 17.5477 7.55905 17.7285L4.22585 18.7675C3.02212 19.1426 2.19727 20.298 2.19727 21.609V22.2921C2.19727 22.8462 2.62775 23.2954 3.15877 23.2954H3.47498C3.44964 23.2055 3.43545 23.1106 3.43545 23.0121V22.329C3.43545 21.0181 4.2603 19.8627 5.46403 19.4875L8.79723 18.4486C9.37735 18.2678 9.77482 17.8457 9.77482 17.4045V17.3971C9.77482 17.0268 10.0703 16.7273 10.4247 16.7462C10.505 16.7505 10.5854 16.7526 10.6659 16.7526C11.3602 16.7526 12.0466 16.5955 12.6755 16.2956V13.2051H8.53664Z" fill="#FAB684"/>
<path d="M6.09375 21.3066H15.5168V23.297H6.09375V21.3066Z" fill="#ECF4FF"/>
<path d="M6.09375 21.3066H7.10768V23.297H6.09375V21.3066Z" fill="#CBE2FF"/>
<path d="M4.31055 9.07256H16.9043V6.57066C16.9043 2.94178 14.0851 0 10.6074 0C7.12975 0 4.31055 2.94178 4.31055 6.57066V9.07256Z" fill="#ECF4FF"/>
<path d="M11.2255 0.0315469C11.0221 0.010875 10.816 0 10.6074 0C7.12975 0 4.31055 2.94178 4.31055 6.57066V9.07256H5.54671V6.57066C5.54671 3.15942 8.03798 0.355641 11.2255 0.0315469Z" fill="#CBE2FF"/>
<path d="M5.54537 10.4425H4.56419C4.01636 10.4425 3.57227 9.97905 3.57227 9.40741V8.73817C3.57227 8.16653 4.01636 7.70312 4.56419 7.70312H5.54537V10.4425Z" fill="#FAB684"/>
<path d="M15.666 7.70312H16.6472C17.195 7.70312 17.6391 8.16653 17.6391 8.73817V9.40741C17.6391 9.97905 17.195 10.4425 16.6472 10.4425H15.666V7.70312Z" fill="#FAB684"/>
<path d="M12.8607 15.1305L12.635 15.2668C11.4351 15.9909 9.95852 16.0028 8.74805 15.298L8.43104 15.1134C6.51171 13.9959 5.32227 11.8821 5.32227 9.58866V8.46586C5.32227 5.42128 7.68754 2.95312 10.6053 2.95312C13.523 2.95312 15.8883 5.42123 15.8883 8.46586V9.65391C15.8883 11.9125 14.7344 13.9998 12.8607 15.1305Z" fill="#FFE8C8"/>
<path d="M9.98623 15.298L9.66922 15.1134C7.74989 13.9959 6.56045 11.8821 6.56045 9.58866V8.46586C6.56045 5.63986 8.59842 3.31092 11.2244 2.991C11.0213 2.96625 10.8148 2.95312 10.6053 2.95312C7.68758 2.95312 5.32227 5.42123 5.32227 8.46586V9.58866C5.32227 11.8821 6.51175 13.9959 8.43104 15.1134L8.74805 15.298C9.53095 15.7539 10.4252 15.9095 11.2838 15.7669C10.8349 15.6922 10.3953 15.5363 9.98623 15.298Z" fill="#FAB684"/>
<path d="M14.7539 14.4808L17.4223 17.2652C17.6875 17.542 18.1176 17.542 18.3828 17.2652C18.6481 16.9884 18.6481 16.5397 18.3828 16.2629L15.7145 13.4785L14.7539 14.4808Z" fill="#918291"/>
<path d="M15.7142 13.4775L15.5616 12.0443C15.4985 11.4516 14.9325 11.0664 14.3872 11.2452C13.542 11.5224 12.8801 12.2131 12.6145 13.095C12.4431 13.6639 12.8122 14.2546 13.3803 14.3205L14.7537 14.4797L15.7142 13.4775Z" fill="#FE8187"/>
<path d="M13.4836 12.1906C13.5528 11.9609 13.6493 11.7447 13.7684 11.5449C13.2246 11.898 12.8109 12.4452 12.6145 13.0974C12.4431 13.6664 12.8122 14.2571 13.3803 14.323L14.7537 14.4822L15.6228 13.5754L14.2494 13.4161C13.6813 13.3503 13.3122 12.7596 13.4836 12.1906Z" fill="#FF646F"/>
<path d="M17.9655 16.6984L15.2971 13.9141L14.7539 14.4809L17.4223 17.2653C17.6875 17.542 18.1176 17.542 18.3828 17.2653C18.4837 17.16 18.5459 17.0299 18.5701 16.8939C18.3575 16.935 18.1299 16.87 17.9655 16.6984Z" fill="#7A6D79"/>
<path d="M3.00321 15.5383C3.1838 15.4834 3.37921 15.4241 3.57561 15.3645C4.01885 15.2299 4.0189 14.5746 3.57565 14.44L3.00348 14.2663C2.79123 14.2018 2.62537 14.0289 2.56361 13.8075C2.51105 13.619 2.45418 13.4151 2.39704 13.2102C2.26807 12.7477 1.64006 12.7476 1.51109 13.2101L1.34456 13.8072C1.28279 14.0287 1.11708 14.2018 0.904822 14.2662C0.720867 14.3221 0.526131 14.3812 0.332428 14.44C-0.110817 14.5746 -0.110817 15.2299 0.332472 15.3645L0.904642 15.5382C1.1169 15.6027 1.28279 15.7756 1.34452 15.9971C1.39806 16.1891 1.45471 16.3923 1.51109 16.5944C1.64006 17.0569 2.26807 17.0569 2.39704 16.5944L2.56352 15.9973C2.62528 15.7758 2.791 15.6027 3.00321 15.5383Z" fill="#FCE3A0"/>
<path d="M2.18653 15.5383L1.61436 15.3645C1.17112 15.2299 1.17107 14.5746 1.61432 14.4401C1.80802 14.3812 2.00276 14.3221 2.18671 14.2662C2.36986 14.2106 2.51801 14.0739 2.59496 13.8951C2.58279 13.8668 2.57205 13.8377 2.56361 13.8075C2.51105 13.619 2.45418 13.4151 2.39704 13.2102C2.26807 12.7477 1.64006 12.7476 1.51109 13.2101L1.34456 13.8072C1.28279 14.0287 1.11708 14.2018 0.904822 14.2662C0.720867 14.3221 0.526131 14.3812 0.332428 14.44C-0.110817 14.5746 -0.110817 15.2299 0.332472 15.3645L0.904642 15.5382C1.1169 15.6027 1.28279 15.7756 1.34452 15.9971C1.39806 16.1891 1.45471 16.3923 1.51109 16.5944C1.64006 17.0569 2.26807 17.0569 2.39704 16.5944L2.56356 15.9973C2.57201 15.967 2.58283 15.9378 2.59505 15.9094C2.5181 15.7307 2.36977 15.5939 2.18653 15.5383Z" fill="#F7BD61"/>
<path d="M20.9056 5.14961C21.0861 5.09477 21.2816 5.03543 21.478 4.9758C21.9212 4.84122 21.9212 4.18591 21.478 4.05133L20.9058 3.87761C20.6936 3.81316 20.5277 3.64024 20.466 3.4188C20.4134 3.23036 20.3565 3.02646 20.2994 2.82152C20.1704 2.359 19.5424 2.35896 19.4134 2.82147L19.2469 3.41852C19.1851 3.64 19.0194 3.81311 18.8072 3.87752C18.6232 3.93339 18.4285 3.9925 18.2348 4.05133C17.7915 4.18591 17.7915 4.84122 18.2348 4.9758L18.807 5.14957C19.0192 5.21402 19.1851 5.38694 19.2469 5.60843C19.3004 5.80038 19.3571 6.00358 19.4134 6.20575C19.5424 6.66827 20.1704 6.66827 20.2994 6.20571L20.4659 5.60866C20.5276 5.38718 20.6933 5.21407 20.9056 5.14961Z" fill="#FCE3A0"/>
<path d="M20.0889 5.14961L19.5167 4.97585C19.0735 4.84127 19.0734 4.18596 19.5167 4.05138C19.7104 3.99255 19.9051 3.93344 20.0891 3.87757C20.2722 3.82193 20.4204 3.68519 20.4973 3.50646C20.4851 3.47814 20.4744 3.44903 20.466 3.4188C20.4134 3.23036 20.3565 3.02646 20.2994 2.82152C20.1704 2.359 19.5424 2.35896 19.4134 2.82147L19.2469 3.41852C19.1851 3.64 19.0194 3.81311 18.8072 3.87752C18.6232 3.93339 18.4285 3.9925 18.2348 4.05133C17.7915 4.18591 17.7915 4.84122 18.2348 4.9758L18.807 5.14957C19.0192 5.21402 19.1851 5.38694 19.2469 5.60843C19.3004 5.80038 19.3571 6.00358 19.4134 6.20575C19.5424 6.66827 20.1704 6.66827 20.2994 6.20571L20.4659 5.60866C20.4744 5.57833 20.4852 5.54913 20.4974 5.52072C20.4204 5.34204 20.2721 5.20525 20.0889 5.14961Z" fill="#F7BD61"/>
<path d="M8.82057 8.94283L8.72139 9.01104C8.31794 9.28849 7.79654 9.28849 7.39305 9.01104L7.29386 8.94283C7.13856 8.83605 6.92959 8.88077 6.82712 9.04286C6.72474 9.205 6.76764 9.42302 6.92303 9.52989L7.02222 9.59814C7.33662 9.81433 7.6969 9.92243 8.05722 9.92243C8.41754 9.92243 8.77785 9.81429 9.09222 9.5981L9.1914 9.52989C9.34674 9.42307 9.38969 9.205 9.28731 9.04286C9.18485 8.88082 8.97591 8.83596 8.82057 8.94283Z" fill="#FAB684"/>
<path d="M14.1899 9.5981L14.2891 9.52989C14.4444 9.42307 14.4873 9.205 14.385 9.04286C14.2825 8.88082 14.0736 8.83596 13.9182 8.94283L13.819 9.01104C13.4156 9.28849 12.8942 9.28849 12.4907 9.01104L12.3915 8.94283C12.2362 8.83605 12.0272 8.88077 11.9248 9.04286C11.8224 9.205 11.8653 9.42302 12.0207 9.52989L12.1199 9.59814C12.4343 9.81433 12.7946 9.92243 13.1549 9.92243C13.5152 9.92243 13.8755 9.81433 14.1899 9.5981Z" fill="#FAB684"/>
<path d="M11.641 13.2075L11.7402 13.1393C11.8956 13.0324 11.9385 12.8144 11.8361 12.6522C11.7337 12.4902 11.5247 12.4453 11.3694 12.5522L11.2702 12.6204C10.8668 12.8979 10.3454 12.8979 9.94187 12.6204L9.84269 12.5522C9.68739 12.4454 9.47842 12.4901 9.37595 12.6522C9.27357 12.8144 9.31647 13.0324 9.47186 13.1393L9.57104 13.2075C9.88545 13.4237 10.2457 13.5318 10.606 13.5318C10.9664 13.5318 11.3267 13.4237 11.641 13.2075Z" fill="#FAB684"/>
</svg>
