<svg width="23" height="24" viewBox="0 0 23 24" fill="none" xmlns="http://www.w3.org/2000/svg">
<path d="M19.334 9.75V19.3125" stroke="#421A13" stroke-width="0.75"/>
<path d="M12.248 3.9375H5.36133C5.15422 3.9375 4.98633 4.10539 4.98633 4.3125V7.875C4.98633 8.08211 5.15422 8.25 5.36133 8.25H12.248C12.4552 8.25 12.623 8.08211 12.623 7.875V4.3125C12.623 4.10539 12.4552 3.9375 12.248 3.9375Z" fill="#51C4F5"/>
<path d="M22.6621 20.2969H0.335938V21.7031H22.6621V20.2969Z" fill="#4C6B7F"/>
<path d="M22.6641 20.2969H21.3164V21.7031H22.6641V20.2969Z" fill="#3B5366"/>
<path d="M13.9609 16.7344H3.73831C3.16228 16.7344 2.69531 16.2471 2.69531 15.646V12.1977C2.69531 11.5966 3.16228 11.1094 3.73831 11.1094H13.961C14.5369 11.1094 15.0039 11.5966 15.0039 12.1977V15.6461C15.0039 16.2471 14.5369 16.7344 13.9609 16.7344Z" fill="#FFB06A"/>
<path d="M13.9609 11.1094H12.6133C13.1893 11.1094 13.6563 11.5966 13.6563 12.1977V15.6461C13.6563 16.2471 13.1893 16.7344 12.6133 16.7344H13.9609C14.537 16.7344 15.0039 16.2471 15.0039 15.646V12.1977C15.0039 11.5966 14.537 11.1094 13.9609 11.1094Z" fill="#FF9242"/>
<path d="M21.5312 9.79688H17.0391L17.9382 5.10938H20.6321L21.5312 9.79688Z" fill="#FFD65C"/>
<path d="M20.6335 5.10938H19.3008L20.1999 9.79688H21.5326L20.6335 5.10938Z" fill="#FFB254"/>
<path d="M21.0391 20.2969H17.625V19.3594C17.625 19.1005 17.8261 18.8906 18.0742 18.8906H20.5898C20.8379 18.8906 21.0391 19.1005 21.0391 19.3594V20.2969Z" fill="#CD795E"/>
<path d="M20.5898 18.8906H19.2422C19.4903 18.8906 19.6914 19.1005 19.6914 19.3594V20.2969H21.0391V19.3594C21.0391 19.1005 20.8379 18.8906 20.5898 18.8906Z" fill="#BE6454"/>
<path d="M14.2402 16.7344H3.45898V18.8906H14.2402V16.7344Z" fill="#DE4747"/>
<path d="M3.45898 18.8906H1.8418C1.74256 18.8906 1.66211 18.8067 1.66211 18.7031V14.6719C1.66211 14.5683 1.74256 14.4844 1.8418 14.4844H3.2793C3.37853 14.4844 3.45898 14.5683 3.45898 14.6719V18.8906Z" fill="#C43F3F"/>
<path d="M15.8574 18.8906H14.2402V14.6719C14.2402 14.5683 14.3207 14.4844 14.4199 14.4844H15.8574C15.9567 14.4844 16.0371 14.5683 16.0371 14.6719V18.7031C16.0371 18.8067 15.9567 18.8906 15.8574 18.8906Z" fill="#C43F3F"/>
<path d="M14.9141 18.8906H2.78516V20.2969H14.9141V18.8906Z" fill="#CD795E"/>
<path d="M14.9141 18.8906H13.5664V20.2969H14.9141V18.8906Z" fill="#BE6454"/>
<path d="M14.958 3.35156H15.2949V3.70312C15.2949 3.89728 15.4457 4.05469 15.6318 4.05469C15.8179 4.05469 15.9688 3.89728 15.9688 3.70312V3.35156H16.3057C16.4918 3.35156 16.6426 3.19416 16.6426 3C16.6426 2.80584 16.4918 2.64844 16.3057 2.64844H15.9688V2.29688C15.9688 2.10272 15.8179 1.94531 15.6318 1.94531C15.4457 1.94531 15.2949 2.10272 15.2949 2.29688V2.64844H14.958C14.7719 2.64844 14.6211 2.80584 14.6211 3C14.6211 3.19416 14.7719 3.35156 14.958 3.35156Z" fill="#83D741"/>
<path d="M21.5742 12.752C21.5742 12.5578 21.4234 12.4004 21.2373 12.4004C21.0512 12.4004 20.9004 12.5578 20.9004 12.752V13.1035H20.5635C20.3774 13.1035 20.2266 13.2609 20.2266 13.4551C20.2266 13.6492 20.3774 13.8066 20.5635 13.8066H20.9004V14.1582C20.9004 14.3524 21.0512 14.5098 21.2373 14.5098C21.4234 14.5098 21.5742 14.3524 21.5742 14.1582V13.8066H21.9111C22.0972 13.8066 22.248 13.6492 22.248 13.4551C22.248 13.2609 22.0972 13.1035 21.9111 13.1035H21.5742V12.752Z" fill="#FAA473"/>
<path d="M1.40137 9.20312H1.73828V9.55469C1.73828 9.74884 1.88913 9.90625 2.0752 9.90625C2.26126 9.90625 2.41211 9.74884 2.41211 9.55469V9.20312H2.74902C2.93509 9.20312 3.08594 9.04572 3.08594 8.85156C3.08594 8.65741 2.93509 8.5 2.74902 8.5H2.41211V8.14844C2.41211 7.95428 2.26126 7.79688 2.0752 7.79688C1.88913 7.79688 1.73828 7.95428 1.73828 8.14844V8.5H1.40137C1.2153 8.5 1.06445 8.65741 1.06445 8.85156C1.06445 9.04572 1.2153 9.20312 1.40137 9.20312Z" fill="#58A1F8"/>
<path d="M5.66113 12.9434C5.47507 12.9434 5.32422 13.1008 5.32422 13.2949V13.5059H5.12207C4.936 13.5059 4.78516 13.6633 4.78516 13.8574C4.78516 14.0516 4.936 14.209 5.12207 14.209H5.32422V14.4199C5.32422 14.6141 5.47507 14.7715 5.66113 14.7715C5.8472 14.7715 5.99805 14.6141 5.99805 14.4199V14.209H6.2002C6.38626 14.209 6.53711 14.0516 6.53711 13.8574C6.53711 13.6633 6.38626 13.5059 6.2002 13.5059H5.99805V13.2949C5.99805 13.1008 5.8472 12.9434 5.66113 12.9434Z" fill="#BE6454"/>
<path d="M12.04 12.9434C11.8539 12.9434 11.7031 13.1008 11.7031 13.2949V13.5059H11.501C11.3149 13.5059 11.1641 13.6633 11.1641 13.8574C11.1641 14.0516 11.3149 14.209 11.501 14.209H11.7031V14.4199C11.7031 14.6141 11.8539 14.7715 12.04 14.7715C12.2262 14.7715 12.377 14.6141 12.377 14.4199V14.209H12.5791C12.7652 14.209 12.916 14.0516 12.916 13.8574C12.916 13.6633 12.7652 13.5059 12.5791 13.5059H12.377V13.2949C12.377 13.1008 12.2262 12.9434 12.04 12.9434Z" fill="#BE6454"/>
<path d="M8.84863 12.9434C8.66257 12.9434 8.51172 13.1008 8.51172 13.2949V13.5059H8.30957C8.1235 13.5059 7.97266 13.6633 7.97266 13.8574C7.97266 14.0516 8.1235 14.209 8.30957 14.209H8.51172V14.4199C8.51172 14.6141 8.66257 14.7715 8.84863 14.7715C9.0347 14.7715 9.18555 14.6141 9.18555 14.4199V14.209H9.3877C9.57376 14.209 9.72461 14.0516 9.72461 13.8574C9.72461 13.6633 9.57376 13.5059 9.3877 13.5059H9.18555V13.2949C9.18555 13.1008 9.0347 12.9434 8.84863 12.9434Z" fill="#BE6454"/>
</svg>
