<svg width="24" height="24" viewBox="0 0 24 24" fill="none" xmlns="http://www.w3.org/2000/svg">
<g clip-path="url(#clip0_1331_11828)">
<path d="M1.53595 1.92383H0.351562V5.01425H1.53595V1.92383Z" fill="#FF6137"/>
<path d="M3.19336 6.57422V12.2232C3.19336 12.84 3.69338 13.3401 4.3102 13.3401C4.92703 13.3401 5.42705 12.84 5.42705 12.2232V10.557C5.42705 9.97838 5.89608 9.50934 6.4747 9.50934C7.05333 9.50934 7.52236 9.97842 7.52236 10.557V11.3607C7.52236 11.9977 8.03873 12.5141 8.67581 12.5141C9.31284 12.5141 9.82927 11.9977 9.82927 11.3607V6.57422H3.19336Z" fill="#FF434D"/>
<path d="M9.8295 6.57422H3.19336V7.69734H9.8295V6.57422Z" fill="#DD3646"/>
<path d="M21.0732 6.55761H2.23711C1.84945 6.55761 1.53516 6.24331 1.53516 5.85566V1.08477C1.53516 0.697109 1.84945 0.382812 2.23711 0.382812H21.0732C21.4609 0.382812 21.7752 0.697109 21.7752 1.08477V5.85566C21.7751 6.24341 21.4608 6.55761 21.0732 6.55761Z" fill="#FFD039"/>
<path d="M21.0732 5.3875H2.23711C1.84945 5.3875 1.53516 5.0732 1.53516 4.68555V5.85545C1.53516 6.24311 1.84945 6.55741 2.23711 6.55741H21.0732C21.4609 6.55741 21.7752 6.24311 21.7752 5.85545V4.68559C21.7751 5.0733 21.4608 5.3875 21.0732 5.3875Z" fill="#FFAE47"/>
<path d="M12.037 23.6172C11.2226 23.6172 10.5625 22.957 10.5625 22.1427V14.6797H13.5115V22.1427C13.5114 22.957 12.8513 23.6172 12.037 23.6172Z" fill="#546F7A"/>
<path d="M12.3407 14.6797V22.1427C12.3407 22.7491 11.9744 23.2699 11.4512 23.4963C11.6306 23.5739 11.8282 23.6172 12.0361 23.6172C12.8505 23.6172 13.5106 22.957 13.5106 22.1427V14.6797H12.3407Z" fill="#475D63"/>
<path d="M14.9688 18.1278L15.8228 18.5106C16.1765 18.6691 16.4596 18.9522 16.6181 19.3059L17.0009 20.16L17.3837 19.3059C17.5422 18.9522 17.8252 18.6691 18.1789 18.5106L19.033 18.1278L18.1789 17.745C17.8252 17.5865 17.5422 17.3035 17.3837 16.9498L17.0009 16.0957L16.6181 16.9498C16.4596 17.3035 16.1765 17.5865 15.8228 17.745L14.9688 18.1278Z" fill="#FFD039"/>
<path d="M19.5566 12.4657L20.4107 12.8485C20.7644 13.007 21.0475 13.2901 21.206 13.6438L21.5888 14.4978L21.9715 13.6438C22.1301 13.2901 22.4131 13.007 22.7668 12.8485L23.6209 12.4657L22.7668 12.0829C22.4131 11.9244 22.1301 11.6414 21.9715 11.2877L21.5888 10.4336L21.206 11.2877C21.0475 11.6413 20.7644 11.9244 20.4107 12.0829L19.5566 12.4657Z" fill="#FFD039"/>
<path d="M6.21703 17.7937C6.21703 18.8536 5.35786 19.7127 4.29797 19.7127C3.23808 19.7127 2.37891 18.8536 2.37891 17.7937C2.37891 16.7338 4.29797 14.5215 4.29797 14.5215C4.29797 14.5215 6.21703 16.7338 6.21703 17.7937Z" fill="#FF434D"/>
<path d="M4.29784 14.5215C4.29784 14.5215 4.0397 14.8191 3.71289 15.2482C4.27741 15.9892 5.047 17.1225 5.047 17.7937C5.047 18.6495 4.48661 19.3742 3.71289 19.6216C3.89734 19.6806 4.0938 19.7127 4.29784 19.7127C5.35773 19.7127 6.21691 18.8536 6.21691 17.7937C6.21691 16.7338 4.29784 14.5215 4.29784 14.5215Z" fill="#DD3646"/>
<path d="M11.8138 15.5617V11.8523C11.8138 9.74924 11.6263 9.93674 13.5013 9.9367C14.4388 9.93669 19.1263 9.93664 22.1263 9.9367C23.8138 9.93674 23.6263 10.0522 23.6263 8.4367C23.6263 6.82123 23.6263 5.8742 23.6263 4.6867C23.6263 3.28444 23.7529 3.3742 22.5013 3.3742C21.6013 3.3742 21.5013 3.3742 21.5638 3.3742" stroke="#546F7A" stroke-width="1.125"/>
</g>
<defs>
<clipPath id="clip0_1331_11828">
<rect width="24" height="24" fill="white"/>
</clipPath>
</defs>
</svg>
