<svg width="24" height="24" viewBox="0 0 24 24" fill="none" xmlns="http://www.w3.org/2000/svg">
<g clip-path="url(#clip0_1331_11843)">
<mask id="mask0_1331_11843" style="mask-type:luminance" maskUnits="userSpaceOnUse" x="0" y="0" width="24" height="24">
<path d="M0 1.90735e-06H24V24H0V1.90735e-06Z" fill="white"/>
</mask>
<g mask="url(#mask0_1331_11843)">
<path d="M17.6783 20.0086L18.1695 20.0952C18.5531 20.1628 18.9483 20.086 19.2787 19.8797L21.1731 18.6965C21.9315 18.2229 22.4532 17.4496 22.6085 16.569L23.3573 12.3224L19.1639 11.583L14.9705 10.8436L14.2218 15.0902C14.0665 15.9707 14.2923 16.8759 14.8429 17.5803L16.2184 19.3401C16.4584 19.647 16.8034 19.8543 17.1871 19.9219L17.6783 20.0086Z" fill="#E1EBEF"/>
<path d="M16.8923 16.9194C18.5192 16.1891 19.4081 13.4921 19.4081 13.4921C19.4081 13.4921 16.7541 12.4823 15.1617 13.285C14.8477 13.4432 14.6119 13.6501 14.4352 13.8797L14.2215 15.0917C14.1462 15.5188 14.1613 15.9515 14.2588 16.3644C14.7323 16.776 15.7384 17.4374 16.8923 16.9194Z" fill="#C4D3D6"/>
<path d="M21.9601 12.0759L21.3277 15.6625C21.1724 16.543 20.6507 17.3163 19.8923 17.79L17.9979 18.9731C17.6675 19.1795 17.2723 19.2563 16.8886 19.1886L16.3974 19.102C16.3974 19.102 16.076 19.0453 15.9746 19.0275L16.219 19.3401C16.4589 19.647 16.804 19.8543 17.1876 19.9219L17.6788 20.0086L18.17 20.0952C18.5537 20.1628 18.9488 20.086 19.2793 19.8797L21.1737 18.6965C21.9321 18.2229 22.4538 17.4496 22.6091 16.569L23.3579 12.3224L21.9601 12.0759Z" fill="#C4D3D6"/>
<path d="M19.6702 8.71145L18.6219 8.52663L18.1152 11.3998L19.1636 11.5847L20.212 11.7695L20.7186 8.89633L19.6702 8.71145Z" fill="#E1EBEF"/>
<path d="M20.0973 8.78673L19.7618 10.6893C19.724 10.9038 19.5195 11.0469 19.3051 11.0091L18.645 10.8927L18.2179 10.8174L18.1152 11.3998L19.1635 11.5847L20.2119 11.7695L20.7185 8.89628L20.0973 8.78673Z" fill="#C4D3D6"/>
<path d="M20.6759 3.00202L19.6275 2.81714L18.6211 8.52483L19.6695 8.70966L20.7178 8.89453L21.7242 3.18684L20.6759 3.00202Z" fill="#FFD432"/>
<path d="M19.6275 2.81719L19.5248 3.39961L20.612 3.59128C20.8264 3.62911 20.9696 3.83358 20.9318 4.04803L20.2677 7.8143C20.2299 8.02875 20.0254 8.17195 19.811 8.13413L18.7238 7.94245L18.6211 8.52483L20.7178 8.89453L21.7242 3.18689L19.6275 2.81719Z" fill="#F4AC03"/>
<path d="M12 18.75V11.4375" stroke="#522C16" stroke-width="0.703125" stroke-miterlimit="10" stroke-linecap="round" stroke-linejoin="round"/>
<path d="M12 15.9844C12 15.9844 11.2988 14.8125 10.0312 14.3438" stroke="#522C16" stroke-width="0.703125" stroke-miterlimit="10" stroke-linecap="round" stroke-linejoin="round"/>
<path d="M12 16.6875C12 16.6875 12.7012 15.5156 13.9688 15.0469" stroke="#522C16" stroke-width="0.703125" stroke-miterlimit="10" stroke-linecap="round" stroke-linejoin="round"/>
<path d="M13.9688 15.0449L16.125 14.0143" stroke="#522C16" stroke-width="0.703125" stroke-miterlimit="10" stroke-linecap="round" stroke-linejoin="round"/>
<path d="M10.0312 14.3418L7.875 13.3112" stroke="#522C16" stroke-width="0.703125" stroke-miterlimit="10" stroke-linecap="round" stroke-linejoin="round"/>
<path d="M12 11.4375V9.5625" stroke="#522C16" stroke-width="0.703125" stroke-miterlimit="10" stroke-linecap="round" stroke-linejoin="round"/>
<path d="M23.3462 2.39305L23.5311 1.34469L18.5611 0.468359L18.3763 1.51672L18.1914 2.56508L23.1614 3.44141L23.3462 2.39305Z" fill="#64AEF7"/>
<path d="M22.7933 1.21466L22.6222 2.18534C22.5843 2.3998 22.3799 2.54295 22.1654 2.50517L18.3215 1.82736L18.1914 2.56508L23.1613 3.44141L23.531 1.34473L22.7933 1.21466Z" fill="#0A86E3"/>
<path d="M19.5938 23.5312H23.5312C23.5312 22.4439 22.6498 21.5625 21.5625 21.5625C21.3252 21.5625 21.0976 21.6045 20.8869 21.6815C20.2725 20.709 19.1886 20.0625 17.9531 20.0625C17.7664 20.0625 17.5832 20.0777 17.4045 20.1061C17.2251 19.0697 16.3221 18.2813 15.2344 18.2813C14.4349 18.2813 13.7349 18.7071 13.3488 19.3443C13.0146 18.9791 12.5341 18.75 12 18.75C11.4659 18.75 10.9854 18.9791 10.6512 19.3443C10.2651 18.7071 9.56508 18.2813 8.76562 18.2813C7.67794 18.2813 6.77494 19.0697 6.5955 20.1061C6.41677 20.0777 6.23362 20.0625 6.04688 20.0625C4.81139 20.0625 3.72755 20.709 3.11306 21.6815C2.90236 21.6045 2.67483 21.5625 2.4375 21.5625C1.35019 21.5625 0.46875 22.4439 0.46875 23.5312H4.40625H19.5938Z" fill="#A77554"/>
<path d="M21.5625 21.5625C21.3252 21.5625 21.0976 21.6045 20.8869 21.6815C20.2725 20.709 19.1886 20.0625 17.9531 20.0625C17.7664 20.0625 17.5832 20.0777 17.4045 20.1061C17.2251 19.0697 16.3221 18.2813 15.2344 18.2813C14.4378 18.2813 13.7402 18.7042 13.3532 19.3376C14.4137 19.4644 15.3268 20.0697 15.8713 20.9315C16.082 20.8545 16.3095 20.8125 16.5469 20.8125C17.2817 20.8125 17.9225 21.2151 18.2608 21.8117C18.5062 22.2446 18.1817 22.7813 17.6841 22.7813H14.5781H0.617015C0.521672 23.0124 0.46875 23.2656 0.46875 23.5312H4.40625H19.5938H23.5312C23.5312 22.4439 22.6498 21.5625 21.5625 21.5625Z" fill="#915431"/>
<path d="M19.5469 22.3125C19.5469 22.4678 19.421 22.5938 19.2656 22.5938C19.1103 22.5938 18.9844 22.4678 18.9844 22.3125C18.9844 22.1572 19.1103 22.0312 19.2656 22.0312C19.421 22.0312 19.5469 22.1572 19.5469 22.3125Z" fill="black"/>
<path d="M5.85938 21.5625C5.85938 21.7178 5.73347 21.8438 5.57812 21.8438C5.42278 21.8438 5.29688 21.7178 5.29688 21.5625C5.29688 21.4072 5.42278 21.2812 5.57812 21.2812C5.73347 21.2812 5.85938 21.4072 5.85938 21.5625Z" fill="black"/>
<path d="M10.0312 14.343C10.0312 14.343 8.83809 15.7531 7.38656 15.1015C5.91398 14.4404 5.10938 11.9992 5.10938 11.9992C5.10938 11.9992 7.51172 11.0852 8.95312 11.8117C10.3739 12.5279 10.0312 14.343 10.0312 14.343Z" fill="#6EC030"/>
<path d="M8.95328 11.8117C8.75683 11.7127 8.54247 11.6443 8.31883 11.5998C9.22947 12.4246 8.96387 13.8351 8.96387 13.8351C8.96387 13.8351 8.03748 14.9296 6.82422 14.7441C6.9992 14.8889 7.18675 15.0117 7.38672 15.1015C8.83825 15.7531 10.0314 14.343 10.0314 14.343C10.0314 14.343 10.3741 12.5279 8.95328 11.8117Z" fill="#378900"/>
<path d="M13.9679 15.0461C13.9679 15.0461 15.1611 16.4562 16.6126 15.8046C18.0852 15.1436 18.8898 12.7024 18.8898 12.7024C18.8898 12.7024 16.4875 11.7883 15.046 12.5149C13.6253 13.231 13.9679 15.0461 13.9679 15.0461Z" fill="#6EC030"/>
<path d="M17.9248 12.4206C17.7069 12.9958 16.9429 14.7912 15.7123 15.3436C15.237 15.5569 14.7894 15.5492 14.4023 15.4423C14.8766 15.802 15.693 16.2178 16.6135 15.8046C18.0861 15.1436 18.8907 12.7024 18.8907 12.7024C18.8907 12.7024 18.4933 12.5512 17.9248 12.4206Z" fill="#378900"/>
<path d="M12 11.4375C12 11.4375 13.7812 11.013 13.7812 9.42188C13.7812 7.83398 12 5.90625 12 5.90625C12 5.90625 10.2188 7.83398 10.2188 9.42188C10.2188 11.013 12 11.4375 12 11.4375Z" fill="#6EC030"/>
<path d="M12.0225 5.93016C12.4605 6.60581 12.8915 7.46897 12.8915 8.25C12.8915 9.09047 12.3945 9.60544 11.9255 9.90427C11.4278 10.2214 10.7871 10.2188 10.2901 9.9007C10.2859 9.89798 10.2816 9.89527 10.2773 9.8925C10.5812 11.0982 12.0008 11.4375 12.0008 11.4375C12.0008 11.4375 13.7821 11.013 13.7821 9.42188C13.7821 7.93702 12.2246 6.15511 12.0225 5.93016Z" fill="#378900"/>
<path d="M8.10938 21.1406C8.10938 20.6746 8.48714 20.2969 8.95312 20.2969C9.41911 20.2969 9.79688 20.6746 9.79688 21.1406" stroke="black" stroke-width="0.703125" stroke-miterlimit="10" stroke-linecap="round" stroke-linejoin="round"/>
<path d="M13.5469 22.0312C13.5469 21.5653 13.9246 21.1875 14.3906 21.1875C14.8566 21.1875 15.2344 21.5653 15.2344 22.0312" stroke="black" stroke-width="0.703125" stroke-miterlimit="10" stroke-linecap="round" stroke-linejoin="round"/>
<path d="M19.5469 22.3125C19.5469 22.4678 19.421 22.5938 19.2656 22.5938C19.1103 22.5938 18.9844 22.4678 18.9844 22.3125C18.9844 22.1572 19.1103 22.0312 19.2656 22.0312C19.421 22.0312 19.5469 22.1572 19.5469 22.3125Z" fill="black"/>
<path d="M5.85938 21.5625C5.85938 21.7178 5.73347 21.8438 5.57812 21.8438C5.42278 21.8438 5.29688 21.7178 5.29688 21.5625C5.29688 21.4072 5.42278 21.2812 5.57812 21.2812C5.73347 21.2812 5.85938 21.4072 5.85938 21.5625Z" fill="black"/>
</g>
</g>
<defs>
<clipPath id="clip0_1331_11843">
<rect width="24" height="24" fill="white"/>
</clipPath>
</defs>
</svg>
