<svg width="24" height="24" viewBox="0 0 24 24" fill="none" xmlns="http://www.w3.org/2000/svg">
<path d="M15.1985 22.7984H3.99842L2.39844 10.3984H16.7984L15.1985 22.7984Z" fill="#4398D1"/>
<path d="M17.9992 8.79883H1.19922V10.3988H17.9992V8.79883Z" fill="#4398D1"/>
<path d="M2.40039 10.4004L2.60678 12.0004H16.594L16.8004 10.4004H2.40039Z" fill="#398CC4"/>
<path d="M8.79919 8.79919H3.19922V5.19919L4.7992 3.19922H7.1992L8.79919 5.19919V8.79919Z" fill="#726891"/>
<path d="M7.20078 0.400391H4.80078V3.20037H7.20078V0.400391Z" fill="#E8594A"/>
<path d="M8.79923 5.19922H3.19922V8.79922H8.79923V5.19922Z" fill="#7A709C"/>
<path d="M16.0421 5.37875L16.7578 5.02148L15.1251 1.75057L14.4094 2.10784L16.0421 5.37875Z" fill="#E66712"/>
<path d="M17.6 0.400391H16V2.00038H17.6V0.400391Z" fill="#F77219"/>
<path d="M14.0004 3.60041H10.4004C10.4004 1.83322 11.8332 0.400391 13.6004 0.400391H16.0004V2.00038L14.0004 3.60041Z" fill="#F77219"/>
<path d="M13.9996 3.59961H11.5996V5.19959H13.9996V3.59961Z" fill="#D4D4D4"/>
<path d="M11.6004 5.19922H14.0004L16.0004 7.19923V8.79922H10.4004V6.39922L11.6004 5.19922Z" fill="#EBEBEB"/>
<path d="M20.7992 17.1992H20.1728C19.7956 17.1992 19.4236 17.2872 19.086 17.4556C18.402 17.798 17.5964 17.798 16.9124 17.4556C16.5748 17.2873 16.2028 17.1992 15.8256 17.1992H15.1992C14.0948 17.1992 13.1992 18.0948 13.1992 19.1992V21.5992C13.1992 22.7037 14.0948 23.5992 15.1992 23.5992H15.8256C16.2028 23.5992 16.5748 23.5113 16.9124 23.3428C17.5964 23.0004 18.402 23.0004 19.086 23.3428C19.4236 23.5113 19.7956 23.5992 20.1728 23.5992H20.7992C21.9036 23.5992 22.7992 22.7037 22.7992 21.5992V19.1992C22.7992 18.0948 21.9036 17.1992 20.7992 17.1992Z" fill="#F5A338"/>
<path d="M20.7992 21.1992H20.1728C19.7956 21.1992 19.4236 21.1113 19.086 20.9428C18.402 20.6004 17.5964 20.6004 16.9124 20.9428C16.5748 21.1112 16.2028 21.1992 15.8256 21.1992H15.1992C14.0948 21.1992 13.1992 20.3037 13.1992 19.1992C13.1992 18.0948 14.0948 17.1992 15.1992 17.1992H15.8256C16.2028 17.1992 16.5748 17.2872 16.9124 17.4556C17.5964 17.798 18.402 17.798 19.086 17.4556C19.4236 17.2873 19.7956 17.1992 20.1728 17.1992H20.7992C21.9036 17.1992 22.7992 18.0948 22.7992 19.1992C22.7992 20.3037 21.9036 21.1992 20.7992 21.1992Z" fill="#F9B44D"/>
<path d="M21.2004 18.4004H20.4004V19.2004H21.2004V18.4004Z" fill="#F5A338"/>
<path d="M17.2004 18.4004H16.4004V19.2004H17.2004V18.4004Z" fill="#F5A338"/>
<path d="M15.6008 18.8008H14.8008V19.6008H15.6008V18.8008Z" fill="#F5A338"/>
<path d="M19.6008 18.8008H18.8008V19.6008H19.6008V18.8008Z" fill="#F5A338"/>
<path d="M11.5992 12.0008V8.80078H5.19922V18.0008C5.19922 18.6636 5.73641 19.2008 6.39922 19.2008H10.3992C11.062 19.2008 11.5992 18.6636 11.5992 18.0008V14.0008L13.2232 14.8128C13.6516 15.0272 14.1724 14.8536 14.3868 14.4256C14.3868 14.4252 14.3872 14.4252 14.3872 14.4248L14.3972 14.4048C14.6212 13.9652 14.446 13.4272 14.0068 13.2036C14.0052 13.2028 14.0031 13.2016 14.0012 13.2008L11.5992 12.0008Z" fill="#97D3E6"/>
<path d="M14.002 13.2008L11.6 12.0008V8.80078H11.2968C9.84481 13.5748 7.29683 16.4924 5.2168 18.1772C5.30281 18.7648 5.80639 19.2004 6.40002 19.2008H10.4C11.0628 19.2008 11.6 18.6636 11.6 18.0008V14.0008L13.224 14.8128C13.6524 15.0272 14.1732 14.8536 14.3876 14.4256C14.3876 14.4252 14.388 14.4252 14.388 14.4248L14.398 14.4048C14.622 13.9652 14.4468 13.4272 14.0075 13.2036C14.0056 13.2028 14.004 13.2016 14.002 13.2008Z" fill="#8AC9DE"/>
<path d="M7.20041 15.2012H6.40039V19.2012H7.20041V15.2012Z" fill="#7DBDD1"/>
<path d="M8.80001 15.2012H8V19.2012H8.80001V15.2012Z" fill="#7DBDD1"/>
<path d="M10.3996 15.2012H9.59961V19.2012H10.3996V15.2012Z" fill="#7DBDD1"/>
<path d="M21.2004 18.4004H20.4004V19.2004H21.2004V18.4004Z" fill="black"/>
<path d="M17.2004 18.4004H16.4004V19.2004H17.2004V18.4004Z" fill="black"/>
<path d="M15.6008 18.8008H14.8008V19.6008H15.6008V18.8008Z" fill="black"/>
<path d="M19.6008 18.8008H18.8008V19.6008H19.6008V18.8008Z" fill="black"/>
</svg>
