<svg width="24" height="24" viewBox="0 0 24 24" fill="none" xmlns="http://www.w3.org/2000/svg">
<g clip-path="url(#clip0_1331_11780)">
<path d="M7.41947 15.791L7.18359 17.6784L2.60747 19.0243C1.54097 19.3378 0.808594 20.3165 0.808594 21.4284V23.3034H18.8086V21.4284C18.8086 20.3169 18.0762 19.3381 17.0097 19.0243L12.4336 17.6784L12.1977 15.791H7.41947Z" fill="#ECB8AD"/>
<path d="M17.0097 19.0247L12.4336 17.6789L12.2401 16.1309C11.5576 16.6304 10.7191 16.9289 9.80859 16.9289C8.89809 16.9289 8.05959 16.6304 7.37709 16.1309L7.18359 17.6789L2.60747 19.0247C1.54097 19.3382 0.808594 20.317 0.808594 21.4289V23.3039H18.8086V21.4289C18.8086 20.3174 18.0762 19.3386 17.0097 19.0247Z" fill="#FDE1D5"/>
<path d="M17.0097 19.0235L13.2507 17.918L13.0647 18.29C12.4482 19.5233 11.1875 20.3026 9.80859 20.3026C8.42972 20.3026 7.16897 19.5233 6.55247 18.29L6.36647 17.918L2.60747 19.0235C1.54097 19.337 0.808594 20.3157 0.808594 21.4276V23.3026H18.8086V21.4276C18.8086 20.3161 18.0762 19.3373 17.0097 19.0235Z" fill="#89C683"/>
<path d="M18.8086 21.4276C18.8086 20.3161 18.0762 19.3373 17.0097 19.0235L13.2507 17.918L13.0647 18.29C12.4482 19.5233 11.1875 20.3026 9.80859 20.3026C8.42972 20.3026 7.16897 19.5233 6.55247 18.29L6.36647 17.918L2.60747 19.0235C2.58647 19.0295 2.56772 19.04 2.54709 19.0467C2.16459 19.4907 1.93359 20.0611 1.93359 20.6776C1.93359 21.713 2.77322 22.5526 3.80859 22.5526H18.8086V21.4276Z" fill="#A7D8A1"/>
<path d="M4.55859 10.0892V9.05236C4.55859 8.22398 3.88697 7.55236 3.05859 7.55236L3.99984 5.43436C4.33959 4.67011 5.09747 4.17736 5.93372 4.17736C6.26222 4.17736 6.58622 4.25386 6.88022 4.40086L7.93322 4.92736L7.49372 4.48786C6.81459 3.80873 5.89359 3.42736 4.93322 3.42736L6.22847 2.39123C6.60384 2.09086 7.06997 1.92736 7.55072 1.92736C8.25834 1.92736 8.91909 2.28098 9.31172 2.86973L10.1836 4.17736C10.1836 2.97698 9.70659 1.82536 8.85759 0.976359L8.68359 0.802734H10.2477C10.9268 0.802734 11.5782 1.07236 12.0582 1.55273C12.5386 2.03311 12.8086 2.68448 12.8086 3.36398V3.80311L12.9976 3.67711C13.5822 3.28711 13.9336 2.63086 13.9336 1.92811L14.1803 2.42198C14.5111 3.08386 14.6836 3.81323 14.6836 4.55311C15.164 4.55311 15.6245 4.36223 15.9638 4.02286L16.1836 3.80311C16.1836 4.77661 15.8678 5.72423 15.2836 6.50311L15.0586 6.80311L16.1836 6.05311C16.1836 7.04198 15.9762 8.01998 15.5742 8.92373L15.0563 10.0885L4.55859 10.0892Z" fill="#672A0D"/>
<path d="M16.1836 3.80311L15.9638 4.02286C15.6241 4.36261 15.1636 4.55311 14.6836 4.55311C14.6836 3.81323 14.5115 3.08348 14.1803 2.42198L13.9336 1.92811C13.9336 2.63086 13.5822 3.28711 12.9976 3.67711L12.8086 3.80311V3.36398C12.8086 2.68448 12.5386 2.03311 12.0582 1.55273C11.5778 1.07273 10.9265 0.802734 10.2477 0.802734H8.68359L8.85759 0.976734C9.70659 1.82573 10.1836 2.97698 10.1836 4.17773L9.31172 2.87011C8.91909 2.28136 8.25834 1.92773 7.55072 1.92773C7.07034 1.92773 6.60384 2.09123 6.22847 2.39161L4.93359 3.42811C5.89397 3.42811 6.81497 3.80948 7.49409 4.48861L7.93359 4.92811L6.88059 4.40161C6.69984 4.31123 6.50709 4.25086 6.30947 4.21523C5.62734 4.33823 5.03784 4.78711 4.74984 5.43511L3.80859 7.55311C4.63697 7.55311 5.30859 8.22473 5.30859 9.05311V10.0896L15.0567 10.0885L15.5746 8.92373C15.9762 8.01998 16.184 7.04198 16.184 6.05311L15.059 6.80311L15.284 6.50311C15.8678 5.72423 16.1836 4.77661 16.1836 3.80311Z" fill="#893B1B"/>
<path d="M5.68359 9.80273H5.30859C4.68722 9.80273 4.18359 10.3064 4.18359 10.9277V11.6777C4.18359 12.2991 4.68722 12.8027 5.30859 12.8027H5.70047" fill="#ECB8AD"/>
<path d="M13.9348 9.80273H14.3098C14.9312 9.80273 15.4348 10.3064 15.4348 10.9277V11.6777C15.4348 12.2991 14.9312 12.8027 14.3098 12.8027H13.918" fill="#ECB8AD"/>
<path d="M3.80859 21.4297H4.55859V23.3047H3.80859V21.4297Z" fill="#6BB566"/>
<path d="M15.0586 21.4297H15.8086V23.3047H15.0586V21.4297Z" fill="#6BB566"/>
<path d="M14.3086 17.3027H22.5586V18.8027H14.3086V17.3027Z" fill="#B4B4B4"/>
<path d="M22.1836 18.8027C22.8556 19.0266 23.3086 19.6555 23.3086 20.3635V22.5527C23.3086 22.9671 22.973 23.3027 22.5586 23.3027H14.3086C13.8942 23.3027 13.5586 22.9671 13.5586 22.5527V20.3635C13.5586 19.6555 14.0116 19.0266 14.6836 18.8027" fill="#3C82C2"/>
<path d="M15.0586 17.3027V16.7129C15.0586 16.2104 15.4662 15.8027 15.9687 15.8027C16.1101 15.8027 16.2492 15.7697 16.3756 15.7067C17.177 15.3059 17.6836 14.4869 17.6836 13.5906V13.5527L18.4523 13.6626C19.5173 13.8149 20.3086 14.7269 20.3086 15.8027C21.137 15.8027 21.8086 16.4744 21.8086 17.3027" fill="#FFD992"/>
<path d="M3.05859 7.55273C3.23559 7.55273 3.40247 7.58873 3.56034 7.64498L4.42397 6.99773C4.83572 6.68873 5.47997 6.78098 5.78897 7.19273L6.34359 8.02298L6.97509 7.61798L6.55134 6.95986L6.38859 6.74311C6.06459 6.31111 5.54859 6.05273 5.00859 6.05273C4.63772 6.05273 4.26984 6.17536 3.97359 6.39811L3.37134 6.84961L3.05859 7.55273Z" fill="#672A0D"/>
<path d="M13.9336 9.41873V12.4277C13.9336 14.7059 12.0867 16.5527 9.80859 16.5527C7.53047 16.5527 5.68359 14.7059 5.68359 12.4277V8.67773C5.68359 7.43498 6.69084 6.42773 7.93359 6.42773C8.68172 6.42773 9.42797 6.35386 10.1618 6.20723L10.6778 6.10411C10.8481 6.06998 11.0213 6.05273 11.195 6.05273C12.3721 6.05273 13.4067 6.83311 13.7303 7.96523C13.865 8.43773 13.9336 8.92711 13.9336 9.41873Z" fill="#ECB8AD"/>
<path d="M13.934 12.4281V9.41911C13.934 8.92748 13.8653 8.43811 13.7303 7.96523C13.5627 7.37911 13.2023 6.89048 12.7325 6.55223C12.482 6.47348 12.218 6.42773 11.945 6.42773C11.7713 6.42773 11.5981 6.44498 11.4278 6.47911L10.9118 6.58223C10.1783 6.72886 9.43172 6.80273 8.68359 6.80273C7.44084 6.80273 6.43359 7.80998 6.43359 9.05273V12.8027C6.43359 14.2671 7.19897 15.55 8.34909 16.282C8.80359 16.4541 9.29409 16.5527 9.80859 16.5527C12.0871 16.5531 13.934 14.7062 13.934 12.4281Z" fill="#FDE1D5"/>
<path d="M22.1836 18.8027H14.6836C14.612 18.8267 14.5445 18.8571 14.4781 18.8897C14.3697 19.1102 14.3086 19.3562 14.3086 19.6135V21.8027C14.3086 22.2171 14.6442 22.5527 15.0586 22.5527H23.3086V20.3635C23.3086 19.6555 22.8552 19.0266 22.1836 18.8027Z" fill="#56A0D9"/>
<path d="M15.8086 18.0527H22.5586V17.3027H15.0586C15.0586 17.7167 15.3942 18.0527 15.8086 18.0527Z" fill="#C8C8C8"/>
<path d="M16.1836 17.0879V17.3027H21.8086C21.8086 16.4744 21.137 15.8027 20.3086 15.8027C20.3086 15.0539 19.9205 14.3912 19.3283 14.002L18.8086 13.9277V13.9656C18.8086 14.8619 18.3023 15.6809 17.5006 16.0817C17.3742 16.1447 17.2347 16.1777 17.0937 16.1777C16.5908 16.1777 16.1836 16.5854 16.1836 17.0879Z" fill="#FFE1B2"/>
</g>
<defs>
<clipPath id="clip0_1331_11780">
<rect width="24" height="24" fill="white"/>
</clipPath>
</defs>
</svg>
