<svg width="24" height="24" viewBox="0 0 24 24" fill="none" xmlns="http://www.w3.org/2000/svg">
<g clip-path="url(#clip0_1331_11909)">
<path d="M7.3125 23.5312H1.875C1.875 22.4957 2.71448 21.6562 3.75 21.6562H5.4375C6.47306 21.6562 7.3125 22.4957 7.3125 23.5312Z" fill="#4C5378"/>
<path d="M5.4375 21.1868H5.1172V4.40625C5.1172 4.14741 4.9073 3.9375 4.64845 3.9375C4.38961 3.9375 4.1797 4.14741 4.1797 4.40625V21.1868H3.75C2.45766 21.1868 1.40625 22.2382 1.40625 23.5305C1.40625 23.7893 1.61616 23.9993 1.875 23.9993H7.3125C7.57134 23.9993 7.78125 23.7893 7.78125 23.5305C7.78125 22.2382 6.72984 21.1868 5.4375 21.1868ZM2.42409 23.0618C2.61755 22.5161 3.13889 22.1243 3.75 22.1243H5.4375C6.04861 22.1243 6.56995 22.5161 6.76341 23.0618H2.42409Z" fill="#4C5378"/>
<line x1="2.09961" y1="10.125" x2="2.09961" y2="5.625" stroke="#646464" stroke-width="0.375"/>
<path d="M12.9375 7.3125H22.5938C23.1115 7.3125 23.5312 6.89278 23.5312 6.375V1.40625C23.5312 0.888469 23.1115 0.46875 22.5938 0.46875H12.9375C12.4197 0.46875 12 0.888469 12 1.40625V6.375C12 6.89273 12.4197 7.3125 12.9375 7.3125Z" fill="#64AEF7"/>
<path d="M12.9375 7.3125H22.5938C23.1115 7.3125 23.5312 6.89278 23.5312 6.375V4.96875L20.8359 2.27344L17.5547 5.55469L15.0586 3.05859L12 6.11719V6.375C12 6.89273 12.4197 7.3125 12.9375 7.3125Z" fill="#C1EE92"/>
<path d="M6.60938 0.470703H2.68748L0.46875 6.23633H8.82811L6.60938 0.470703Z" fill="#FF5D5D"/>
<path d="M21.8199 17.6781V12.9012C21.8199 11.9482 21.0474 11.1758 20.0945 11.1758H16.9216H13.0779H9.99881C9.04589 11.1758 8.27344 11.9483 8.27344 12.9012V17.6781H21.8199Z" fill="#FEDC75"/>
<path d="M20.1084 15.8027H9.98438V20.5296H20.1084V15.8027Z" fill="#FDC8A3"/>
<path d="M20.1084 15.8027H9.98438V17.6777H20.1084V15.8027Z" fill="#FEECB3"/>
<path d="M9.9848 20.5295H6.5625V15.5529C6.5625 14.6079 7.32858 13.8418 8.27362 13.8418C9.21867 13.8418 9.98475 14.6079 9.98475 15.5529V20.5295H9.9848Z" fill="#FCB17E"/>
<path d="M23.5316 20.5295H20.1094V15.5529C20.1094 14.6079 20.8755 13.8418 21.8205 13.8418C22.7655 13.8418 23.5316 14.6079 23.5316 15.5529V20.5295Z" fill="#FCB17E"/>
<path d="M2.10938 9.98438C1.98558 9.98438 1.86516 10.0345 1.77797 10.1217C1.69078 10.209 1.64062 10.3298 1.64062 10.4531C1.64062 10.5764 1.69073 10.6973 1.77797 10.7845C1.86516 10.8717 1.98609 10.9219 2.10938 10.9219C2.23266 10.9219 2.35359 10.8717 2.44073 10.7845C2.52797 10.6973 2.57812 10.5764 2.57812 10.4531C2.57812 10.3298 2.52797 10.2089 2.44073 10.1217C2.35359 10.0345 2.23266 9.98438 2.10938 9.98438Z" fill="#646464"/>
</g>
<defs>
<clipPath id="clip0_1331_11909">
<rect width="24" height="24" fill="white"/>
</clipPath>
</defs>
</svg>
