<svg width="24" height="24" viewBox="0 0 24 24" fill="none" xmlns="http://www.w3.org/2000/svg">
<path d="M8.99989 17.625H4.01661C3.78444 17.625 3.55632 17.6858 3.35492 17.8013C3.15353 17.9168 2.98588 18.083 2.86864 18.2834L2.807 18.3888C2.64153 18.6716 2.58632 19.0056 2.65195 19.3267C2.71758 19.6477 2.89944 19.9333 3.16264 20.1285C4.37741 21.0295 5.84976 21.516 7.36222 21.516H9.78097C10.4785 21.516 11.1554 21.2787 11.7002 20.8432L8.99989 17.625Z" fill="#E57C90"/>
<path d="M8.80059 7.64105V5.76605L8.28206 5.15025C8.21565 5.07138 8.1771 4.97282 8.17237 4.86983C8.16764 4.76683 8.197 4.66515 8.2559 4.58053L8.77579 3.83362L8.71781 3.49758C8.70606 3.42952 8.71977 3.35951 8.75632 3.30091C8.79287 3.24231 8.84971 3.1992 8.916 3.17981L11.7144 2.36133L10.4051 7.05656L8.79857 8.02889L8.80059 7.40667" fill="#F0B78F"/>
<path d="M10.207 11.25H11.7432C12.1122 11.25 12.4764 11.167 12.809 11.0071C13.1416 10.8473 13.4339 10.6147 13.6644 10.3266C13.901 10.0307 14.0662 9.68429 14.147 9.31417C14.2278 8.94405 14.222 8.56028 14.1301 8.19277C14.0024 7.89267 13.9835 7.55738 14.0768 7.24487C14.1701 6.93235 14.3697 6.66227 14.641 6.48131L15.3809 6L12.5198 3.375L10.4883 6.5625L10.207 11.25Z" fill="#7A4922"/>
<path d="M10.1143 13.125C10.0558 13.3593 10.0502 13.6037 10.098 13.8405C10.1459 14.0772 10.2459 14.3003 10.3909 14.4935L11.0518 15.375L7.96662 17.625C7.14839 16.5092 6.58022 15.2302 6.30078 13.875L10.1143 13.125Z" fill="#F0B78F"/>
<path d="M11.05 15.375L11.4995 15.45C12.0572 15.5429 12.585 15.7665 13.0398 16.1024C13.4946 16.4383 13.8635 16.8771 14.1164 17.3828L14.425 18L18.925 19.5L18.6239 18.8978C18.0792 17.8084 17.7379 16.6288 17.6167 15.4168L17.425 13.5L18.925 13.125L21.7794 19.5975C21.935 19.9504 21.987 20.3404 21.9291 20.7218C21.8712 21.1032 21.7058 21.4602 21.4524 21.7511C21.2493 21.9843 20.9956 22.168 20.7106 22.2882C20.4257 22.4084 20.1171 22.462 19.8083 22.4448L16.7229 22.2734C14.9631 22.1756 13.2472 21.687 11.6999 20.843C10.5252 20.2023 9.4677 19.3668 8.57253 18.3721C8.35691 18.1326 8.15434 17.8835 7.96484 17.6249L11.05 15.375Z" fill="#FF8AA0"/>
<path d="M17.4258 13.5L16.7597 13.056C16.6185 12.9618 16.5028 12.8343 16.4227 12.6847C16.3427 12.5352 16.3008 12.3681 16.3008 12.1985C16.3008 12.0674 16.3258 11.9375 16.3745 11.8157L16.6454 11.2887C16.9118 10.7704 17.0508 10.196 17.0508 9.61322V9.23405C17.0508 9.07251 17.115 8.9176 17.2292 8.80338C17.3434 8.68917 17.4983 8.625 17.6599 8.625C17.804 8.625 17.9435 8.67615 18.0535 8.76934C18.1635 8.86252 18.2369 8.99171 18.2606 9.13392L18.9258 13.125L17.4258 13.5Z" fill="#F0B78F"/>
<path d="M9.02971 20.1443L7.86252 20.2802H6.78055C6.5636 20.2802 6.35062 20.3384 6.16385 20.4488C5.97708 20.5592 5.82336 20.7177 5.71874 20.9078L5.58636 21.1483C5.52693 21.2563 5.50205 21.3799 5.5151 21.5025C5.52816 21.625 5.5785 21.7406 5.65935 21.8337C5.71589 21.8988 5.78574 21.9509 5.86419 21.9867C5.94263 22.0224 6.02783 22.0409 6.11404 22.0409H8.4561C8.89547 22.0409 9.32087 21.8865 9.65797 21.6048C9.74213 21.5344 9.8115 21.448 9.86207 21.3507C9.91264 21.2533 9.9434 21.1469 9.95258 21.0376C9.96176 20.9283 9.94916 20.8183 9.91553 20.7138C9.8819 20.6094 9.8279 20.5127 9.75664 20.4293C9.66817 20.3258 9.55558 20.2456 9.4288 20.1959C9.30203 20.1462 9.16496 20.1285 9.02971 20.1443Z" fill="#F0B78F"/>
<path d="M7.94621 10.9058C7.7695 10.6408 7.67519 10.3294 7.67518 10.0108V8.29102L6.31876 9.34622C5.97917 9.61034 5.71598 9.96007 5.5562 10.3595C5.4017 10.7458 5.34919 11.1653 5.40375 11.5778C5.4583 11.9902 5.61807 12.3817 5.86768 12.7145L6.17518 13.1245C6.20675 13.3767 6.24807 13.6267 6.29917 13.8745L10.1127 13.1245L10.4877 11.6245H9.28876C9.02311 11.6245 8.76157 11.5589 8.52737 11.4335C8.29316 11.3082 8.09354 11.1269 7.94621 10.9058Z" fill="#FF8AA0"/>
<path d="M16.3008 5.625L13.6928 2.03906C13.5714 1.87209 13.4122 1.73622 13.2282 1.64253C13.0443 1.54884 12.8408 1.5 12.6343 1.5C12.3852 1.5 12.1414 1.57108 11.9313 1.70488C11.7212 1.83868 11.5537 2.02964 11.4484 2.25534L9.4148 6.61298C9.25774 6.94951 9.02296 7.24389 8.72981 7.47187L7.67578 8.29167V10.0115C7.67579 10.33 7.77009 10.6415 7.94681 10.9065C8.09416 11.1275 8.29379 11.3087 8.528 11.4341C8.7622 11.5594 9.02373 11.625 9.28936 11.625H10.4883L11.0508 9.375C11.5398 8.64145 11.8008 7.77956 11.8008 6.89794V6.375L12.9258 4.5L14.8008 6.375L15.9258 7.875L17.1322 8.77969C17.1667 8.80559 17.2068 8.82319 17.2492 8.83114C17.2916 8.83908 17.3353 8.83715 17.3769 8.82549C17.4185 8.81383 17.4568 8.79276 17.4889 8.76391C17.521 8.73506 17.5461 8.69921 17.5621 8.65912L18.0983 7.3185C18.1207 7.26247 18.1245 7.2007 18.1091 7.14234C18.0938 7.08398 18.06 7.03211 18.0129 6.99441L16.3008 5.625Z" fill="#F0B78F"/>
</svg>
